<svg width="67" height="21" viewBox="0 0 67 21" fill="none" xmlns="http://www.w3.org/2000/svg">
<path d="M12.4375 1.51562H12.4531L12.4688 1.53125C12.4896 1.55208 12.5104 1.56771 12.5312 1.57812C12.6042 1.61979 12.6823 1.66667 12.7656 1.71875C13.0156 1.86458 13.25 1.98438 13.4688 2.07812C13.8021 2.22396 14.0729 2.29688 14.2812 2.29688C14.4792 2.29688 14.6094 2.21875 14.6719 2.0625V2.1875C14.6719 2.44792 14.6458 2.75 14.5938 3.09375C14.3854 4.35417 13.8594 4.98438 13.0156 4.98438C12.7448 4.98438 12.4427 4.92188 12.1094 4.79688C11.8802 4.70312 11.625 4.57292 11.3438 4.40625L10.9688 4.17188L10.6094 3.9375C9.98438 3.52083 9.47396 3.26042 9.07812 3.15625C8.65104 3.04167 8.21354 2.98438 7.76562 2.98438C7.06771 2.98438 6.34375 3.125 5.59375 3.40625C4.98958 3.625 4.45833 3.99479 4 4.51562C3.5625 5.02604 3.25521 5.60938 3.07812 6.26562C2.90104 6.95312 2.8125 7.625 2.8125 8.28125C2.8125 8.72917 2.85417 9.16667 2.9375 9.59375C3.13542 10.5521 3.57812 11.5885 4.26562 12.7031C5.71354 15.0469 8.0625 16.8333 11.3125 18.0625L13.6094 16.3438L14.2812 17.2812L9.51562 20.8906C9.44271 20.8906 9.05208 20.7552 8.34375 20.4844C7.60417 20.2135 7.13542 20.0312 6.9375 19.9375C3.5625 18.2708 1.43229 16 0.546875 13.125C0.255208 12.1667 0.109375 11.2552 0.109375 10.3906C0.109375 10.1719 0.119792 9.95833 0.140625 9.75C0.234375 8.70833 0.578125 7.625 1.17188 6.5C1.69271 5.5 2.55208 4.42708 3.75 3.28125C4.17708 2.88542 4.71354 2.4375 5.35938 1.9375L5.75 1.65625L6.15625 1.34375C6.46875 1.125 6.75 0.942708 7 0.796875C7.66667 0.401042 8.28125 0.177083 8.84375 0.125C8.92708 0.114583 9.01042 0.109375 9.09375 0.109375C9.61458 0.109375 10.1615 0.244792 10.7344 0.515625C10.9948 0.630208 11.2865 0.786458 11.6094 0.984375L12.0312 1.25L12.4375 1.51562Z" fill="white"/>
<path d="M21.8281 5.45312C22.7552 5.81771 23.4271 6.34375 23.8438 7.03125L21.4844 8.78125C21.4635 8.35417 21.1667 7.97396 20.5938 7.64062L19.0781 8.75V15.2344C19.0781 15.5573 19.1354 15.8646 19.25 16.1562C19.3438 16.3854 19.474 16.5938 19.6406 16.7812C19.8281 17.0104 20.0156 17.1771 20.2031 17.2812L17.875 19L17.8594 18.9844H17.8438L17.8125 18.9688L17.7344 18.9219L17.625 18.8594C17.5312 18.7969 17.4427 18.7344 17.3594 18.6719C17.2552 18.5885 17.151 18.5 17.0469 18.4062C16.8073 18.1771 16.6198 17.9219 16.4844 17.6406C16.3073 17.2969 16.2188 16.9271 16.2188 16.5312V9.23438C16.2188 8.64062 16.0312 8.13021 15.6562 7.70312C15.4688 7.48438 15.2812 7.32292 15.0938 7.21875L17.4062 5.5H17.4219L17.4688 5.53125L17.625 5.60938C17.6979 5.66146 17.776 5.71354 17.8594 5.76562C17.9531 5.83854 18.0417 5.91146 18.125 5.98438C18.3438 6.17188 18.526 6.38021 18.6719 6.60938C18.8594 6.89062 18.9792 7.19271 19.0312 7.51562L21.8281 5.45312Z" fill="white"/>
<path d="M31.3906 16.75L28.4375 19C28.3021 18.9896 28.1615 18.974 28.0156 18.9531C27.8281 18.9219 27.6406 18.8802 27.4531 18.8281C26.9531 18.6823 26.4948 18.4635 26.0781 18.1719C24.8906 17.3385 24.1354 15.9844 23.8125 14.1094C23.7083 13.5469 23.6562 12.974 23.6562 12.3906C23.6562 11.6927 23.7292 10.9792 23.875 10.25C24.1146 9.0625 24.5469 8.06771 25.1719 7.26562C25.9635 6.26562 27.0365 5.58854 28.3906 5.23438C30.6927 5.90104 31.8438 8.54688 31.8438 13.1719C31.8438 14.224 31.7865 15.3698 31.6719 16.6094L31.3906 16.75ZM29.1406 13.5469C29.1198 9.41146 28.3281 7.33854 26.7656 7.32812C26.2969 8.13021 26.0625 9.16667 26.0625 10.4375C26.0625 11.2083 26.1458 12.0573 26.3125 12.9844C26.4062 13.7135 26.6979 14.4115 27.1875 15.0781C27.6979 15.776 28.349 16.2448 29.1406 16.4844V13.5469Z" fill="white"/>
<path d="M45.2969 5.46875L45.3125 5.48438H45.3438L45.375 5.5L45.4531 5.54688L45.5625 5.60938C45.6458 5.67188 45.7344 5.73438 45.8281 5.79688C45.9323 5.88021 46.0312 5.96875 46.125 6.0625C46.375 6.29167 46.5677 6.54688 46.7031 6.82812C46.8802 7.17188 46.9688 7.54167 46.9688 7.9375C46.9688 8.23958 46.9635 10.6562 46.9531 15.1875L41.8281 19C40.7552 18.5208 39.9323 17.8125 39.3594 16.875L36.5 19C35.625 18.6042 34.901 18.0417 34.3281 17.3125C33.7969 16.625 33.5312 15.9792 33.5312 15.375V8.92188C33.5312 8.67188 33.474 8.43229 33.3594 8.20312C33.2656 8.01562 33.1354 7.83333 32.9688 7.65625C32.7812 7.45833 32.5938 7.30208 32.4062 7.1875L34.7344 5.46875C35.3281 5.8125 35.7812 6.41146 36.0938 7.26562C36.25 7.69271 36.349 8.08333 36.3906 8.4375L36.375 15.4062C36.375 15.8438 36.6771 16.2396 37.2812 16.5938L38.8594 15.375V8.92188C38.8594 8.47396 38.6719 8.05208 38.2969 7.65625C38.099 7.45833 37.9062 7.30208 37.7188 7.1875L40.0469 5.46875C40.6406 5.8125 41.0938 6.41146 41.4062 7.26562C41.5729 7.69271 41.6719 8.08333 41.7031 8.4375V15.4062C41.7031 15.8438 42 16.2396 42.5938 16.5938L44.1094 15.4688V9.20312C44.1094 8.88021 44.0521 8.57812 43.9375 8.29688C43.8438 8.06771 43.7135 7.85938 43.5469 7.67188C43.3594 7.45312 43.1719 7.29167 42.9844 7.1875L45.2969 5.46875Z" fill="white"/>
<path d="M52.125 15.2656C52.125 16.1615 52.5 16.8333 53.25 17.2812L50.9375 19L50.9219 18.9844H50.9062C49.8229 18.1719 49.2812 17.1458 49.2812 15.9062V9.23438C49.2812 8.64062 49.0938 8.13021 48.7188 7.70312C48.5312 7.48438 48.3438 7.32292 48.1562 7.21875L50.4688 5.5H50.4844L50.5312 5.53125L50.6875 5.60938C50.7604 5.66146 50.8385 5.71354 50.9219 5.76562C51.0156 5.83854 51.1042 5.91146 51.1875 5.98438C51.4062 6.17188 51.5885 6.38021 51.7344 6.60938C51.9219 6.89062 52.0521 7.19271 52.125 7.51562L54.8906 5.45312C55.8073 5.80729 56.474 6.32292 56.8906 7C57.224 7.54167 57.3906 8.16146 57.3906 8.85938V15.2656C57.3906 16.1615 57.7656 16.8333 58.5156 17.2812L56.2031 19L56.1875 18.9844H56.1719C55.0885 18.1719 54.5469 17.1458 54.5469 15.9062V8.82812C54.5469 8.39062 54.25 7.99479 53.6562 7.64062L52.125 8.75V15.2656Z" fill="white"/>
<path d="M64.3906 10.9688C65.8281 11.7917 66.6094 12.6042 66.7344 13.4062C66.8177 13.8854 66.8594 14.3177 66.8594 14.7031C66.8594 14.8698 66.849 15.0312 66.8281 15.1875C66.7448 15.8438 66.5104 16.3698 66.125 16.7656C66.0625 16.8177 65.224 17.4531 63.6094 18.6719C63.3073 18.8906 62.974 19 62.6094 19C62.151 19 61.6354 18.8229 61.0625 18.4688C60.0521 17.8542 59.5052 17.1042 59.4219 16.2188L61.5938 14.6094C61.6667 14.8698 61.7917 15.1302 61.9688 15.3906C62.4479 16.0781 63.0104 16.5052 63.6562 16.6719C63.7708 16.7031 63.875 16.7188 63.9688 16.7188C64.2604 16.7188 64.474 16.5938 64.6094 16.3438C64.6406 16.2917 64.6667 16.2135 64.6875 16.1094L64.7031 16V15.8906C64.7135 15.8281 64.7188 15.7656 64.7188 15.7031C64.7188 15.6094 64.7083 15.5208 64.6875 15.4375C64.5 14.5 63.8333 13.7448 62.6875 13.1719C61.5417 12.5885 60.8125 12.1823 60.5 11.9531C59.7083 11.349 59.3125 10.6458 59.3125 9.84375V9.67188C59.3646 8.93229 59.6458 8.31771 60.1562 7.82812L60.3125 7.6875L63.3281 5.4375C63.4219 5.42708 63.5208 5.42188 63.625 5.42188C64.2604 5.42188 64.8958 5.65104 65.5312 6.10938C66.25 6.61979 66.7396 7.22396 67 7.92188L64.7656 9.59375C64.7656 9.55208 64.6094 9.32812 64.2969 8.92188C63.9531 8.50521 63.6354 8.21354 63.3438 8.04688C63.0938 7.88021 62.7656 7.77604 62.3594 7.73438H62.2969C62.1823 7.73438 62.0938 7.75521 62.0312 7.79688L62 7.82812C61.7812 7.99479 61.6719 8.22396 61.6719 8.51562V8.54688C61.6823 8.65104 61.7083 8.76562 61.75 8.89062C61.7812 8.97396 61.8229 9.0625 61.875 9.15625C62.125 9.53125 62.9635 10.1354 64.3906 10.9688Z" fill="white"/>
</svg>
